<svg xmlns="http://www.w3.org/2000/svg" viewBox="0 0 640 420" role="img" aria-label="Honey cake">
  <defs><linearGradient id="bg" x1="0" x2="1" y1="0" y2="1"><stop offset="0" stop-color="#fff8df"/><stop offset="1" stop-color="#f5d37b"/></linearGradient></defs>
  <rect width="640" height="420" fill="url(#bg)"/><ellipse cx="320" cy="330" rx="205" ry="34" fill="#a36c22" opacity=".16"/>
  <path d="M168 122h288c25 0 45 20 45 45v121c0 39-74 70-166 70s-166-31-166-70V122z" fill="#c88632"/>
  <ellipse cx="334" cy="122" rx="166" ry="67" fill="#e5b55b"/><g fill="#fff0c9"><path d="M183 173h301v18H183z"/><path d="M183 229h301v18H183z"/><path d="M183 285h301v18H183z"/></g>
  <path d="M215 114c40-31 187-31 239 0" fill="none" stroke="#fff0b7" stroke-width="14" stroke-linecap="round"/><circle cx="414" cy="77" r="13" fill="#ffc94d"/><circle cx="258" cy="91" r="11" fill="#ffc94d"/>
</svg>
